<?xml version="1.0" encoding="UTF-8"?>
<svg id="Calque_2" data-name="Calque 2" xmlns="http://www.w3.org/2000/svg" viewBox="0 0 295.88 211.22">
  <defs>
    <style>
      .cls-1 {
        fill: #aaa;
      }

      .cls-1, .cls-2 {
        stroke-width: 0px;
      }

      .cls-2 {
        fill: #1c1c1c;
      }
    </style>
  </defs>
  <g id="Calque_1-2" data-name="Calque 1">
    <path class="cls-1" d="M146.6,0c50.64.81,94.92,16.14,133.05,48.39,5.23,4.42,9.96,9.32,14.9,14.01,1.45,1.38,1.99,2.4.21,4.03-3.79,3.48-7.56,7.02-11.05,10.8-2.78,3.01-4.7,2.87-7.61-.09-14.57-14.82-31.12-26.98-49.95-35.94-28.86-13.74-59.3-19.64-91.1-17.22-45.21,3.43-83.98,21.37-115.9,53.68-3,3.04-4.71,2.97-7.38-.15-3.13-3.65-6.67-6.96-10.19-10.23-2.03-1.88-2.15-3.13-.08-5.22C33.36,29.78,71.41,9.55,116.37,2.68c4.27-.65,8.53-1.39,12.83-1.74,6.13-.5,12.28-.67,17.4-.94Z"/>
    <path class="cls-1" d="M255.77,104.35c-.8,1.03-1.42,2.01-2.21,2.82-3.62,3.66-7.4,7.16-10.89,10.94-2.14,2.31-3.32,2.51-5.75-.04-16.99-17.9-37.19-30.59-61.53-35.77-40.35-8.59-76.38.31-107.69,27.44-2.51,2.17-5.3,4.17-7.28,6.77-3.25,4.26-5.85,4.57-9.38.28-2.95-3.58-6.44-6.73-9.86-9.89-1.84-1.7-1.53-2.81.06-4.47,23.05-24.02,50.55-39.57,83.72-44.77,32.5-5.09,63.19.16,92.14,15.55,13.91,7.4,26.05,17.21,36.84,28.69.66.7,1.17,1.54,1.85,2.45Z"/>
    <path class="cls-2" d="M151.47,110.52c24.01.61,45.81,10.85,63.01,30.98,1.9,2.22,1.66,3.48-.3,5.33-3.86,3.65-7.6,7.43-11.22,11.32-2,2.14-3.07,2.5-5.26-.17-13.49-16.47-30.97-25.02-52.32-24.04-18.18.84-33.93,7.67-45.44,22.4-2.9,3.71-5.25,4.89-8.62.64-1.85-2.33-4.2-4.26-6.32-6.37q-6.26-6.23-.41-12.57c17.36-18.86,39.05-27.49,66.89-27.52Z"/>
    <path class="cls-2" d="M169.49,190.16c-.12,12.39-9.19,21.2-21.67,21.06-11.81-.13-21.58-9.94-21.27-21.35.32-11.67,10.08-21.59,21.27-21.6,12.31-.02,21.79,9.57,21.67,21.89Z"/>
  </g>
</svg>