<?xml version="1.0" encoding="UTF-8"?>
<svg id="Calque_2" xmlns="http://www.w3.org/2000/svg" viewBox="0 0 799.45 329.26">
  <g id="Calque_1-2" data-name="Calque_1">
    <g>
      <path d="M275.24,82.33c-7.3,2.42-14.49,4.91-21.75,7.19-17.45,5.47-31.49,15.56-42.21,30.41-1.23,1.71-3.46,3.07-5.51,3.75-38.25,12.67-76.59,25.06-114.81,37.81-35.7,11.9-52.21,50.81-36.21,84.71,12.58,26.67,43.3,40.6,72.23,31.85,25.5-7.71,50.69-16.42,76.01-24.7,14.25-4.66,28.48-9.33,42.73-13.98,32.11-10.47,49.16-39.69,42.48-72.83-.16-.79-.23-1.59-.41-2.85,15.12-4.97,30.11-9.9,46.01-15.13,1.26,6.16,2.81,12.04,3.62,18.03,6.97,51.39-24.76,101.85-74.01,117.99-39.24,12.86-78.46,25.79-117.69,38.67C79.3,345.06,11.61,303.71,1.19,234.96c-7.6-50.15,21.93-100.9,70.21-117.9,42.08-14.82,84.63-28.32,127.19-41.72,24.77-7.8,49.39-5.38,73.31,4.51.92.38,1.79.86,2.65,1.36.24.14.34.54.69,1.13Z"/>
      <path d="M511.51,163.63c-.63,4.58-1.47,8.66-1.72,12.78-1.75,28.2,15.27,53.45,42.07,62.3,39.22,12.95,78.46,25.85,117.73,38.63,31.02,10.09,62.52-3.68,75.99-32.98,12.68-27.59,2.32-61.09-24.53-77-7.34-4.35-15.83-6.91-24.02-9.64-34.44-11.47-68.98-22.65-103.43-34.08-2.17-.72-4.42-2.35-5.77-4.19-10.64-14.44-24.43-24.37-41.49-29.83-7.28-2.33-14.54-4.74-22.94-7.48,2.06-1.12,3.18-1.87,4.4-2.37,25.16-10.36,50.79-11.84,76.72-3.44,39.61,12.82,79.16,25.83,118.69,38.91,47.36,15.67,78.78,60.63,76.1,108.62-2.88,51.62-37.62,92.5-87.75,103.09-19,4.01-37.79,2.77-56.23-3.25-40.05-13.08-80.12-26.12-120.1-39.42-54.57-18.14-86.1-78.29-70.04-133.25.18-.62.53-1.19,1.02-2.26,15.16,4.97,30.23,9.91,45.33,14.86Z"/>
      <path d="M447.67,125.79c4.97-15.19,9.87-30.16,14.97-45.71,8.08,2.42,15.88,4.6,23.58,7.09,19.32,6.25,38.75,12.23,57.85,19.1,24.13,8.68,38.39,26.35,41.29,51.68,2.98,26-7.59,46.33-29.57,60.72-3.31,2.17-5.84,2.03-9.02-.13-12.71-8.62-19.62-20.5-20.85-35.77-.19-2.4.21-3.9,2.81-4.95,5.8-2.36,8.98-6.96,8.63-13.28-.36-6.45-3.91-10.87-10.11-12.88-25.49-8.27-51-16.49-76.49-24.73-.91-.3-1.81-.65-3.09-1.12Z"/>
      <path d="M351.71,125.62c-25.73,8.41-50.86,16.62-75.99,24.83-1.58.52-3.19.97-4.72,1.62-5.6,2.38-8.71,6.72-8.94,12.73-.23,5.88,2.58,10.43,7.99,12.67,3.17,1.32,3.71,3.14,3.42,6.13-1.52,15.46-8.69,27.45-22.06,35.41-1.68,1-4.99,1.07-6.63.07-22.17-13.57-33.13-33.52-30.87-59.44,2.16-24.79,15.13-43.33,38.48-52.08,26.62-9.97,54.02-17.86,81.14-26.47,1.09-.35,3.68.78,4.01,1.75,4.85,14.14,9.44,28.37,14.16,42.79Z"/>
      <path d="M447.34,155.1c-3.39,17.07-3.37,33.6,0,50.48h-94.53c.63-8.66,1.73-17.07,1.73-25.49,0-8.24-1.12-16.48-1.77-24.99h94.58Z"/>
      <path d="M375.28,0h48.51c-8.04,17.85-15.87,35.22-24.24,53.81-8.31-18.42-16.15-35.81-24.27-53.81Z"/>
      <path d="M364.14,68.11c-19.59-4.92-38.07-9.55-57.45-14.42,10.14-12.84,19.84-25.11,30.2-38.22,9.15,17.67,17.93,34.63,27.25,52.63Z"/>
      <path d="M434.95,68.12c9.31-18,18.04-34.89,27.2-52.61,10.14,12.78,19.87,25.05,30.26,38.14-19.22,4.84-37.73,9.5-57.45,14.47Z"/>
    </g>
  </g>
</svg>