<?xml version="1.0" encoding="UTF-8"?>
<svg id="Camera" xmlns="http://www.w3.org/2000/svg" viewBox="0 0 500 500">
    <defs>
        <style>
            .cls-1 {
            fill: none;
            }
        </style>
    </defs>
    <g id="Calque_1-2" data-name="Calque_1">
        <rect class="cls-1" width="500" height="500"/>
        <g>
            <path class="fill-white-when-dark-mode"
                  d="M194.97,252.7c-5.56-1.4-11.43-2.49-17.04-4.36-32.8-10.98-65.54-22.15-98.3-33.25-1.81-.61-3.63-1.19-5.43-1.81-4.86-1.67-9.84-3.54-9.99-9.71-.15-6.19,4.74-8.23,9.56-10.07,50.16-19.12,100.31-38.28,150.49-57.35,42.37-16.11,84.78-32.13,127.18-48.15,14.65-5.53,22.28-2.08,27.81,12.57,7,18.5,13.96,37.02,20.85,55.57,4.49,12.1.81,20.28-11.45,24.92-60.47,22.89-120.97,45.71-181.49,68.46-3.75,1.41-7.78,2.06-12.2,3.19Z"/>
            <path class="fill-white-when-dark-mode"
                  d="M389.57,191.63c2.27,5.94,4.62,11.16,6.25,16.59,2.77,9.2-1.55,17.49-11,21.23-9.31,3.69-18.71,7.22-28.2,10.41-4.32,1.45-5.3,3.55-4.35,7.91,3.13,14.35-1.01,26.89-12.4,35.77-5.93,4.63-7.3,9.22-7.24,16.2,0,.5,0,.97.01,1.39.05,4.7,3.87,8.48,8.56,8.48h60.93c0-14.24-.02-28.25,0-42.26.02-12.09,3-15.01,15.3-15.05,5.93-.02,11.86,0,18.34,0v161.99c-8.39,0-16.71.6-24.89-.19-6.45-.63-8.78-5.74-8.76-11.97.05-16.23.01-32.45.01-48.68,0-2.61,0-5.21,0-8.65-2.93-.16-5.45-.4-7.97-.4-21-.02-42,.06-63,0-19.82-.07-32.21-12.32-32.53-32-.03-2.15-.17-4.31.02-6.44.85-9.75.53-15.26-9.37-21.69-6.33-4.11-8.79-10.55-9.89-15.25-1.85.59-4.28,1.26-6.64,2.14-33.11,12.27-66.2,24.59-99.31,36.86-14.61,5.41-22.16,1.89-27.75-12.84-2.11-5.55-4.23-11.1-6.56-17.2-5.81,1.36-10.76,2.03-12.61,9.51-.7,2.85-2.66,4.16-4.61,4.91-21.17,8.13-21.78,10.99-29.23-11.12-3.5-10.39-7.5-20.61-11.15-30.95-1.63-4.62-4.96-9.99.03-13.86,5.16-4.01,11.26-7.31,18.48-4.81,23.67,8.19,47.55,15.81,70.94,24.74,15.47,5.9,29.69,6.78,45.62.54,55.31-21.68,111.06-42.21,166.65-63.16,1.76-.66,3.57-1.2,6.32-2.12ZM315.52,236.96c-10.1.01-18.08,8.02-18.14,18.21-.06,10.22,7.76,18.33,17.84,18.52,10.35.19,18.71-8.16,18.57-18.54-.13-10.07-8.3-18.2-18.27-18.19Z"/>
        </g>
    </g>
</svg>