<?xml version="1.0" encoding="UTF-8"?>
<svg id="Calque_2" xmlns="http://www.w3.org/2000/svg" viewBox="0 0 500 500">
    <defs>
        <style>
            .cls-1 {
            fill: none;
            }

            .cls-2 {
            fill: #28996c;
            }
        </style>
    </defs>
    <g id="Calque_1" data-name="Calque_1">
        <rect class="cls-1" width="500" height="500"/>
        <g id="icon">
            <g id="heart-cross-empty">
                <path id="heart" class="cls-1 fill-white-when-dark-mode"
                      d="M108.37,389.19c16.22,16.11,33.55,30.94,51.67,44.86,15.65,12.01,31.77,23.33,48.55,33.71.93.57,1.55.49,2.42-.04,11.41-7.06,22.53-14.56,33.39-22.43,30.34-21.98,58.81-46.09,83.84-74.07,12.63-14.11,24.13-29.08,33.72-45.45,11.38-19.42,19.71-39.92,22.07-62.52,1.04-9.97.72-19.9-1.01-29.77-2.54-14.45-7.96-27.79-15.7-40.2-3.75-6.01-7.73-11.87-12.8-16.87-8.19-8.06-17.98-13.43-28.94-16.71-14.38-4.31-29.02-4.83-43.8-2.86-15.11,2.01-29.4,6.59-42.71,14.06-9.84,5.52-18.57,12.4-25.43,21.46-1.37,1.81-2.59,3.74-3.92,5.66-1.61-2.72-3.38-5.27-5.36-7.67-8.29-10.05-18.72-17.28-30.37-22.83-13.92-6.63-28.61-10.44-44.01-11.47-12.24-.83-24.3.09-36.09,3.67-11.77,3.57-22.2,9.42-30.6,18.53-6.03,6.54-10.76,14.02-15,21.8-7.79,14.34-12.35,29.64-13.22,45.95-.73,13.74,1.13,27.18,5.02,40.36,4.75,16.08,12.05,30.97,20.94,45.11,13.35,21.22,29.59,40.08,47.33,57.71Z"/>
                <path id="cross" class="cls-1 fill-white-when-dark-mode"
                      d="M459.79,86.97c0-1.18-.28-1.51-1.49-1.51-14.07.04-28.15.01-42.22.05-1.21,0-1.49-.34-1.49-1.51.04-14.03.01-28.06.05-42.09,0-1.14-.22-1.53-1.47-1.53-13.56.05-27.11.05-40.67,0-1.25,0-1.47.4-1.46,1.53.03,13.99,0,27.97.05,41.96,0,1.3-.3,1.64-1.62,1.64-13.99-.05-27.97-.02-41.96-.05-1.11,0-1.55.17-1.55,1.45.05,13.56.05,27.11,0,40.67,0,1.06.24,1.38,1.34,1.38,7.08-.05,14.16-.03,21.24-.02,6.99,0,13.99.03,20.98-.03,1.25-.01,1.57.31,1.57,1.56-.05,14.03-.01,28.06-.06,42.09,0,1.23.27,1.59,1.55,1.58,13.47-.05,26.94-.05,40.41,0,1.27,0,1.66-.24,1.66-1.61-.06-13.99-.04-27.97-.04-41.96q0-1.64,1.69-1.64c13.99,0,27.97-.01,41.96.02,1.12,0,1.53-.2,1.52-1.45-.05-13.51-.05-27.02,0-40.54Z"/>
            </g>
            <path id="thunder" class="cls-2"
                  d="M269.06,295.47c-12,.09-23.99.17-35.99.26-4.49.03-8.98.06-13.47.08-1.9,0-3.8-.01-5.7,0-.67,0-.88-.23-.62-.85.13-.32.29-.63.43-.94,8.35-18.39,16.7-36.79,25.05-55.19,3.82-8.43,7.63-16.88,11.44-25.31,0,0,0,0,0,0,.01-.1.07-.28.03-.3-.13-.09-.19.03-.23.15-.3.3-.62.59-.91.9-11.32,12.56-22.63,25.13-33.95,37.7-19.2,21.32-38.4,42.63-57.6,63.95-.24.27-.61.48-.61,1.04h1.38c18.09,0,36.18,0,54.26-.02,1.11,0,1.31.17.82,1.25-10.73,23.56-21.43,47.14-32.13,70.71-2.08,4.59-4.12,9.19-6.17,13.79-.16.12-.33.33-.17.47.22.2.26-.15.39-.24.36-.37.72-.74,1.07-1.12,14.63-16.49,29.26-32.98,43.89-49.46,15.41-17.36,30.82-34.71,46.23-52.06,1.35-1.52,2.7-3.05,4.26-4.82-.81,0-1.27,0-1.73,0Z"/>
            <path id="heart-cross" class="cls-2"
                  d="M0,48.96v402.08C0,478.08,21.92,500,48.96,500h402.08c27.04,0,48.96-21.92,48.96-48.96V48.96C500,21.92,478.08,0,451.04,0H48.96C21.92,0,0,21.92,0,48.96ZM371.05,41.98c0-1.39.33-1.69,2.5-1.47,12.77,1.29,25.62,1.38,38.38.02,2.36-.25,2.72,0,2.72,1.44-.04,14.03,0,28.06-.05,42.09,0,1.17.28,1.51,1.49,1.51,14.07-.04,28.15-.01,42.22-.05,1.2,0,1.49.33,1.49,1.51-.04,13.51-.05,27.02,0,40.54,0,1.25-.4,1.46-1.52,1.45-13.99-.03-27.97-.02-41.96-.02q-1.69,0-1.69,1.64c0,13.99-.02,27.97.04,41.96,0,1.36-.39,1.61-1.66,1.61-13.47-.05-26.94-.05-40.41,0-1.28,0-1.55-.36-1.55-1.58.04-14.03.01-28.06.06-42.09,0-.87-.7-1.57-1.57-1.56-6.99.06-13.98.03-20.97.03-7.08,0-14.16-.02-21.24.02-1.1,0-1.34-.32-1.34-1.38.04-13.56.04-27.11,0-40.67,0-1.28.44-1.45,1.55-1.45,13.99.03,27.97,0,41.96.05,1.32,0,1.63-.34,1.62-1.64-.05-13.99-.02-27.97-.05-41.96ZM354.51,176.46c5.08,5,9.05,10.86,12.8,16.87,7.75,12.41,13.16,25.75,15.7,40.2,1.74,9.87,2.05,19.8,1.01,29.77-2.36,22.6-10.69,43.1-22.07,62.52-9.59,16.37-21.09,31.33-33.72,45.45-25.04,27.98-53.5,52.09-83.84,74.07-10.87,7.87-21.98,15.38-33.39,22.43-.87.54-1.49.62-2.42.04-16.78-10.38-32.91-21.7-48.55-33.71-18.12-13.91-35.46-28.74-51.67-44.86-17.74-17.63-33.98-36.49-47.33-57.71-8.9-14.14-16.2-29.03-20.94-45.11-3.89-13.18-5.75-26.62-5.02-40.36.87-16.32,5.43-31.62,13.22-45.95,4.23-7.79,8.97-15.26,15-21.8,8.4-9.12,18.83-14.96,30.6-18.53,13.3-4.04,26.95-4.69,40.81-3.27,11.98,1.23,23.73,4.28,34.8,9.04,13.46,5.79,25.51,13.54,34.85,24.86,1.98,2.4,3.75,4.95,5.36,7.67,1.32-1.92,2.54-3.85,3.92-5.66,6.86-9.06,15.59-15.94,25.43-21.46,13.31-7.46,27.6-12.04,42.71-14.06,14.79-1.97,29.42-1.44,43.8,2.86,10.97,3.28,20.75,8.65,28.94,16.71Z"/>
        </g>
    </g>
</svg>