<?xml version="1.0" encoding="UTF-8"?>
<svg id="Calque_2" xmlns="http://www.w3.org/2000/svg" viewBox="0 0 500 500">
    <defs>
        <style>
            .cls-1 {
            fill: none;
            }

            .cls-2 {
            fill: #ea1d2b;
            }
        </style>
    </defs>
    <g id="Calque_1-2" data-name="Calque_1">
        <rect class="cls-1" y="0" width="500" height="500"/>
        <g>
            <path class="cls-2"
                  d="M.02,249.52C.91,110.08,112.25,3.46,243.44.08c138.43-3.56,255.8,106.59,256.54,249.62.71,137.53-112.31,250.44-250.27,250.3C111.94,499.86.07,387.63.02,249.52ZM150.6,179.19c-1.95-1.94-5.85-5.82-5.85-5.82M144.75,173.38l-1.18-.72s-12.62-13.23-19.03-19.76c-1.71-1.75-3.09-3.96-5.57-4.84-1.6-2.92-4.07-5.01-6.7-6.93-5.07-6.37-11.34-11.56-16.97-17.53-.88,1.04-1.58,1.81-2.2,2.62-32.32,42.07-46.88,89.5-41.92,142.41,4.71,50.22,25.77,92.79,62.52,127.31,35.46,33.31,77.94,51.07,126.38,53.54,49.49,2.52,93.94-12.05,133.29-42.23,2.66-2.04,2.89-3.03.37-5.51-16.04-15.78-31.86-31.77-47.8-47.65-10.06-10.03-20.18-19.99-30.28-29.98-1.2-1.53-2.35-3.1-4.05-4.14-3.29-3.25-6.58-6.51-9.87-9.76-1.02-1.75-2.51-3.04-4.11-4.24-3.24-3.23-6.47-6.46-9.71-9.69-1.18-1.77-2.73-3.19-4.42-4.47-12.48-12.46-24.95-24.93-37.43-37.39-3.14-3.65-6.47-7.11-10.24-10.12-3.61-4.16-7.51-8.03-11.64-11.66-3.43-3.34-6.38-7.19-10.45-9.86-6.77-7.96-14.08-15.38-22.12-22.06-1.51-2.99-4.23-4.86-6.57-7.09-3.76-3.85-7.5-7.72-11.32-11.51l-8.99-8.75M316.84,288.01c1.1,1.73,2.6,3.08,4.25,4.27,3.23,3.28,6.47,6.56,9.7,9.84,1.29,1.28,2.58,2.57,3.87,3.85,22.73,22.87,45.49,45.72,68.17,68.65,1.7,1.71,2.52,1.25,3.7-.39,1.72-2.4,3.73-4.6,5.4-7.03,37.84-54.85,48.13-114.34,28.24-178.09-16.34-52.37-49.88-91.27-98.31-116.58-41.63-21.76-85.99-27.71-132.22-18.24-30.83,6.31-58.52,19.33-83.29,38.66-1.57,1.22-3.13,2.01-.79,4.27,9.05,8.71,17.92,17.62,26.85,26.45,2.37,2.39,4.74,4.77,7.12,7.16,5.81,5.89,11.57,11.83,17.43,17.67,18.74,18.69,37.51,37.35,56.27,56.03,3.19,3.54,6.39,7.08,10.2,9.99,3.47,4.33,7.5,8.1,11.62,11.78,3.09,3.67,6.52,7,10.11,10.17,12.47,12.47,24.94,24.94,37.4,37.41,1.48,1.47,2.97,2.94,4.45,4.41,3.03,3.49,6.24,6.8,9.82,9.73Z"/>
            <path class="fill-white-when-dark-mode"
                  d="M295.65,324.1c-41.62,19.41-83.23,38.82-124.86,58.22-5.29,2.46-6.98,1.85-9.4-3.31-4.08-8.69-8.15-17.38-12.19-26.09-2.35-5.06-1.63-6.95,3.54-9.36,36.92-17.25,73.84-34.5,110.76-51.74,1.69,1.28,3.23,2.69,4.42,4.47-7.73,3.66-15.46,7.33-23.21,10.95-1.72.8-3.03,1.24-1.78,3.77,3.87,7.8,7.44,15.74,11.04,23.67.83,1.82,1.56,2.37,3.62,1.38,11.29-5.46,22.67-10.74,34.02-16.08,1.7,1.04,2.85,2.61,4.05,4.14Z"/>
            <path class="fill-white-when-dark-mode"
                  d="M233.22,204.52c17.34-8.22,34.65-16.47,52.02-24.64,21.52-10.12,43.1-20.09,64.58-30.29,3-1.42,4.13-1.06,5.49,2.01,4.67,10.53,9.55,20.98,14.67,31.3,1.55,3.12.75,4.14-2.1,5.47-33.76,15.68-67.46,31.49-101.17,47.26-.53.25-1.03.55-1.55.83-3.59-3.17-7.02-6.5-10.11-10.18,1.3-.7,2.58-1.45,3.91-2.08,27.96-13.08,55.94-26.13,83.89-39.25,3.44-1.62,8.86-2.33,9.7-5.29.8-2.84-2.69-6.8-4.01-10.37-.99-2.68-2.1-3.12-4.8-1.84-33.4,15.76-66.86,31.39-100.3,47.05-3.81-2.91-7.01-6.44-10.2-9.99Z"/>
            <path class="fill-white-when-dark-mode"
                  d="M302.56,273.86c16.65-9.93,35.37-13.86,53.81-18.61,8.01-2.06,15.98-4.34,24.05-6.14,4.27-.95,7.68-2.69,10.06-6.42.87-1.36,2.04-2.53,3.09-3.78,3.71-4.41,4.76-4.26,7.24,1.02,3.07,6.56,6.17,13.1,9.16,19.7,1.94,4.27,1.21,5.77-3.29,5.25-8.67-1.02-15.48,2.04-22.24,7.25-12.29,9.47-25.16,18.19-37.74,27.28-3.75,2.71-7.94,4.54-12.04,6.55-1.29-1.28-2.58-2.57-3.87-3.85,12.72-5.49,22.95-14.79,34.33-22.34,3.16-2.1,1.2-3.8.48-5.85-1.03-2.95-2.73-1.23-4.12-.59-13.48,6.28-26.93,12.62-40.39,18.95-1.65-1.19-3.14-2.54-4.25-4.27,14.15-6.66,28.3-13.3,42.43-20,1.26-.6,3.71-.85,1.98-3.21-1.08-1.47-.42-4.57-4.19-3.69-17.26,4.06-34.46,8.22-50.05,17.16-1.48-1.47-2.97-2.94-4.45-4.41Z"/>
            <path class="fill-white-when-dark-mode"
                  d="M150.73,179.19c-1.95-1.94-4.03-3.88-5.98-5.82l-1.18-.72c-6.51-1.9-13.16-2.04-19.88-1.94-7.28.11-10.82-2.16-12.46-7.49-1.6-5.21.22-9.67,5.59-13.63.71-.52,1.44-1.02,2.15-1.53-1.6-2.92-4.07-5.01-6.71-6.93-9.46,6.1-13.12,14.67-10.46,24.49,2.58,9.53,9.58,14.47,21.04,14.8,3.69.1,7.4-.13,11.06.19,7.35.63,10.31,5.64,7.52,12.37-.68,1.63-1.41,3.25-2.23,4.82-7.01,13.4-7.41,27.09-2.03,41.11,2.04,5.33,1.94,5.4,7.14,2.74,1.81-.93,4.21-1.19,2.69-4.58-5.5-12.23-4.99-24.35,1.51-36.15,3.37-6.13,5.07-12.52,2.94-19.48l-.7-2.23Z"/>
            <path class="fill-white-when-dark-mode"
                  d="M226.07,254.42c-13.06,6.17-26.13,12.31-39.15,18.56-1.84.88-2.45.28-3.3-1.29-5.29-9.74-5.33-9.72,4.61-14.4,9.2-4.33,18.41-8.66,27.61-12.99,3.77,3.01,7.1,6.47,10.24,10.12Z"/>
            <path class="fill-white-when-dark-mode"
                  d="M204.19,232.64c-9.84,4.65-19.7,9.24-29.48,14-1.8.88-2.69.6-3.34-1.15-.05-.14-.11-.27-.18-.4q-4.95-9.56,4.94-14.12c5.87-2.71,11.73-5.45,17.6-8.18,4.07,2.67,7.02,6.51,10.45,9.85Z"/>
            <path class="fill-white-when-dark-mode"
                  d="M171.62,200.72c-9.23,6.31-12.59,15.15-11.16,26.02.15,1.15.38,2.38.94,3.38,1.23,2.22.52,3.25-1.63,4.34-6.45,3.27-6.96,3.35-8.41-3.89-3.01-15.01.8-27.71,13.69-36.94,2.34,2.22,5.06,4.09,6.57,7.09Z"/>
            <path class="fill-white-when-dark-mode"
                  d="M281.73,310.2c-1.54.83-3.02,1.82-4.63,2.46-2.93,1.17-5.18,2.36-5.89,6.13-.81,4.29-6.1,6.47-10.27,5.08-4.4-1.47-6.78-5.77-5.6-10.11,1.18-4.35,5.86-7.85,9.76-5.94,5.07,2.48,8.58.15,12.53-1.86,1.59,1.19,3.08,2.49,4.11,4.24Z"/>
            <path class="fill-white-when-dark-mode"
                  d="M152.4,123.66c1.42-3.16,1.85-6.4,1.56-9.91-.42-4.95,4.54-4.14,7.07-5.45,2.17-1.12,2.04,2.11,2.32,3.52,1.34,6.82-.03,13.17-3.83,19-2.37-2.39-4.74-4.77-7.12-7.16Z"/>
            <path class="fill-white-when-dark-mode"
                  d="M181.18,274.26c-.73,1.95-2.86,1.81-4.24,2.79-3.62,2.58-5.67,1.94-7.53-2.47-4.3-10.17-9.15-20.1-13.96-30.04-1.12-2.31-1.21-3.37,1.47-4.57,6.78-3.03,6.73-3.2,9.84,3.42,4.39,9.33,8.75,18.66,13.12,28,.44.93.85,1.88,1.29,2.87Z"/>
            <path class="fill-white-when-dark-mode"
                  d="M148.99,243.76c1.38,0,1.51,1.23,1.91,2.08,5.21,11.07,10.34,22.18,15.62,33.22.97,2.01.42,2.68-1.4,3.58-7.14,3.53-7.1,3.6-10.45-3.54-4.2-8.94-8.19-17.99-12.69-26.78-1.91-3.73-1.1-5.38,2.59-6.5,1.53-.47,2.94-1.35,4.42-2.05Z"/>
        </g>
    </g>
</svg>