<?xml version="1.0" encoding="UTF-8"?>
<svg id="Calque_2" xmlns="http://www.w3.org/2000/svg" viewBox="0 0 500 500">
  <defs>
    <style>
      .cls-1 {
        fill: none;
      }

      .cls-2 {
        fill: #fff;
      }
    </style>
  </defs>
  <g id="Calque_1-2" data-name="Calque_1">
    <rect class="cls-1" width="500" height="500"/>
    <g>
      <path d="M245.59,75.51c2.82,0,5.65,0,8.47,0,.93.11,1.86.23,2.79.32,5.85.53,11.73.81,17.54,1.6,23.47,3.21,45.32,11.05,65.6,23.29,17.11,10.32,31.93,23.27,44.65,38.66.85,1.03,1.72,1.48,3.09,1.47,11.46-.06,22.93-.07,34.39-.01,3.23.02,6.47.12,9.67.53,21.19,2.68,38.42,12.49,51.67,29.18,8.75,11.01,13.95,23.58,15.73,37.54.3,2.38.54,4.77.81,7.15v69.16c-.1.63-.25,1.26-.28,1.89-.82,14.11-4.99,27.12-13.07,38.72-15.06,21.65-35.85,33.18-62.22,34.08-12.27.42-24.57.09-36.86.06-1.14,0-1.97.27-2.73,1.18-16.27,19.81-35.89,35.36-58.96,46.57-19.83,9.64-40.73,15.24-62.71,16.9-2.92.22-5.84.45-8.76.68h-8.82c-.99-.11-1.97-.28-2.96-.32-23.25-.93-45.42-6.33-66.48-16.19-23.83-11.15-44.09-26.94-60.82-47.25-.96-1.17-1.94-1.58-3.43-1.57-11.7.06-23.4.11-35.09.01-19.16-.17-36.05-6.58-50.39-19.22-13.34-11.75-21.78-26.47-24.98-44.03-.69-3.8-.97-7.67-1.44-11.51,0-22.94,0-45.87,0-68.81.1-.75.25-1.5.31-2.25,1.65-23.15,11.63-41.95,29.8-56.28,13.75-10.85,29.55-16.14,47.06-16.23,11.64-.06,23.28-.04,34.92.02,1.46,0,2.34-.52,3.25-1.57,3.59-4.11,7.11-8.29,10.95-12.15,14.98-15.04,32.12-27.02,51.47-35.84,18.63-8.49,38.14-13.5,58.55-15.09,3.1-.24,6.19-.47,9.29-.7ZM233.39,338.2h1.88c61.74,0,123.48,0,185.22,0,.65,0,1.3.04,1.94-.02,3.9-.34,7.87-.33,11.69-1.11,13.86-2.82,25.03-10.12,33.53-21.35,7.29-9.63,11.21-20.55,11.24-32.71.04-21.11.01-42.22-.04-63.33,0-3.28.03-6.61-.47-9.84-2.36-15.11-9.63-27.44-21.8-36.69-10.28-7.81-21.91-11.49-34.92-11.43-34.69.16-69.38.07-104.08.05-8.17,0-16.17.85-23.76,4.12-10.62,4.59-17.28,12.85-21.41,23.36-4.48,11.4-5.86,23.42-6.32,35.52-.41,10.75-.37,21.51-.41,32.27-.05,12.93.17,25.86-1.43,38.74-.83,6.71-2.12,13.31-4.59,19.64-2.96,7.59-7.38,14.1-14.69,18.03-3.71,2-7.83,3.24-11.58,4.75ZM95.34,198.32c-4.36,20.38-8.7,40.71-13.05,61.04-.11-.02-.22-.05-.32-.07-2.52-20.56-5.03-41.12-7.56-61.79-10.59.24-20.96.47-31.53.71,8.67,36.8,17.27,73.29,25.87,109.77.39.05.62.1.85.1,8.17,0,16.35-.02,24.52.03,1.21,0,1.41-.56,1.62-1.54,3.24-15.04,6.52-30.06,9.8-45.09,1.21-5.54,2.42-11.08,3.63-16.61.39.35.52.7.59,1.07,3.75,20.21,7.51,40.41,11.2,60.63.24,1.34.78,1.54,1.96,1.54,8.53-.04,17.05-.02,25.58-.02.46,0,.93-.04,1.52-.07,8.84-36.52,17.67-73.02,26.54-109.67h-30.82c-3.22,20.89-6.42,41.69-9.62,62.48l-.31.02c-4.12-20.82-8.24-41.64-12.38-62.52h-28.07ZM190.67,227.68v80.26h27.76v-80.26h-27.76ZM203.49,220.61c3.75,0,7.2-1,10.28-3.15,7.93-5.54,8.24-15.92.68-21.89-6.85-5.4-17.54-4.75-23.55,1.44-5.19,5.35-5.2,13.19.03,18.52,3.44,3.5,7.71,5.03,12.56,5.07Z"/>
      <path class="cls-2" d="M233.39,338.2c3.75-1.51,7.87-2.75,11.58-4.75,7.31-3.93,11.73-10.44,14.69-18.03,2.47-6.32,3.76-12.92,4.59-19.64,1.6-12.87,1.38-25.81,1.43-38.74.04-10.76,0-21.52.41-32.27.46-12.1,1.84-24.11,6.32-35.52,4.13-10.51,10.79-18.77,21.41-23.36,7.59-3.28,15.59-4.13,23.76-4.12,34.69.02,69.39.12,104.08-.05,13.01-.06,24.64,3.61,34.92,11.43,12.18,9.26,19.45,21.58,21.8,36.69.5,3.23.46,6.56.47,9.84.05,21.11.08,42.22.04,63.33-.02,12.15-3.95,23.08-11.24,32.71-8.5,11.23-19.68,18.53-33.53,21.35-3.81.78-7.79.77-11.69,1.11-.64.06-1.29.02-1.94.02-61.74,0-123.48,0-185.22,0h-1.88ZM388.39,274.46v-24.42h-58.5v-25.99h64.12v-24.93h-94.23v108.82h30.01v-33.47h58.6ZM410.47,307.92h27.74v-80.18h-27.74v80.18ZM422.16,220.55c4.96.02,8.46-1.01,11.57-3.23,7.52-5.35,8.04-15.19,1.15-21.21-6.69-5.84-17.76-5.47-23.96.8-5.3,5.35-5.33,13.29-.04,18.64,3.41,3.44,7.63,4.93,11.28,4.99Z"/>
      <path class="cls-2" d="M95.34,198.32h28.07c4.13,20.88,8.25,41.7,12.38,62.52l.31-.02c3.2-20.79,6.4-41.59,9.62-62.48h30.82c-8.87,36.64-17.7,73.14-26.54,109.67-.59.03-1.06.07-1.52.07-8.53,0-17.05-.02-25.58.02-1.17,0-1.71-.2-1.96-1.54-3.69-20.22-7.45-40.42-11.2-60.63-.07-.37-.2-.72-.59-1.07-1.21,5.54-2.42,11.08-3.63,16.61-3.27,15.03-6.56,30.06-9.8,45.09-.21.98-.41,1.55-1.62,1.54-8.17-.05-16.35-.03-24.52-.03-.23,0-.46-.05-.85-.1-8.6-36.47-17.2-72.97-25.87-109.77,10.57-.24,20.94-.47,31.53-.71,2.53,20.68,5.05,41.24,7.56,61.79.11.02.22.05.32.07,4.35-20.33,8.69-40.67,13.05-61.04Z"/>
      <path class="cls-2" d="M190.67,227.68h27.76v80.26h-27.76v-80.26Z"/>
      <path class="cls-2" d="M203.49,220.61c-4.85-.05-9.12-1.57-12.56-5.07-5.23-5.33-5.23-13.16-.03-18.52,6.01-6.19,16.7-6.85,23.55-1.44,7.56,5.97,7.25,16.34-.68,21.89-3.08,2.15-6.52,3.16-10.28,3.15Z"/>
      <path d="M388.39,274.46h-58.6v33.47h-30.01v-108.82h94.23v24.93h-64.12v25.99h58.5v24.42Z"/>
      <path d="M410.47,307.92v-80.18h27.74v80.18h-27.74Z"/>
      <path d="M422.16,220.55c-3.64-.06-7.87-1.56-11.28-4.99-5.3-5.34-5.26-13.28.04-18.64,6.21-6.27,17.28-6.64,23.96-.8,6.89,6.01,6.36,15.85-1.15,21.21-3.11,2.22-6.61,3.25-11.57,3.23Z"/>
    </g>
  </g>
</svg>