<?xml version="1.0" encoding="UTF-8"?>
<svg id="Calque_2" data-name="Calque 2" xmlns="http://www.w3.org/2000/svg" viewBox="0 0 1025.56 203.38">
  <defs>
    <style>
      .cls-1 {
        fill: #fff;
      }

      .cls-1, .cls-2 {
        stroke-width: 0px;
      }

      .cls-2 {
        fill: #5f97d5;
      }
    </style>
  </defs>
  <g id="Calque_1-2" data-name="Calque 1">
    <g>
      <path class="cls-2" d="m269.55,54.09c9.2-1.23,19.48-2.3,30.98-2.3,21.93,0,38.64,5.98,48.31,16.56,8.59,9.35,12.42,20.4,12.42,33.74,0,11.81-3.53,26.22-14.26,37.72-9.97,10.58-27.45,17.17-50.61,17.17-9.35,0-17.94-.15-26.84-.92V54.09Zm7.51,95.69c4.91.77,12.27.92,20.55.92,39.26,0,55.97-21.62,55.97-48.46.31-25.3-15.95-44.17-53.67-44.17-9.97,0-17.48.92-22.85,1.99v89.71Z"/>
      <path class="cls-2" d="m390.54,60.68c0,3.37-2.45,6.59-6.44,6.59-3.53,0-5.98-3.22-5.98-6.59s2.76-6.59,6.29-6.59,6.13,3.07,6.13,6.59Zm-9.97,95.38v-73.61h7.51v73.61h-7.51Z"/>
      <path class="cls-2" d="m412.01,146.1c4.45,2.76,11.04,5.52,18.4,5.52,12.88,0,18.56-6.75,18.56-14.26,0-8.59-5.83-12.73-17.33-16.41-13.34-4.29-19.94-11.19-19.94-19.94,0-10.43,8.28-20.4,24.23-20.4,7.21,0,13.5,1.99,17.79,4.91l-2.91,6.13c-2.45-1.69-7.82-4.75-16.25-4.75-10.12,0-15.49,6.13-15.49,13.19,0,8.28,6.29,11.5,17.17,15.18,13.5,4.6,20.09,10.43,20.09,21.47,0,11.96-9.81,21.16-26.53,21.16-7.82,0-15.03-2.15-20.55-5.37l2.76-6.44Z"/>
      <path class="cls-2" d="m477.64,106.23c0-7.97-.15-15.79-.61-23.77h7.21l.61,15.33h.31c5.52-9.97,15.64-17.17,30.98-17.17,21.62,0,35.42,17.17,35.42,37.11,0,25.76-17.18,40.18-37.26,40.18-11.5,0-22.7-4.75-28.83-15.03h-.31v43.86h-7.51v-80.51Zm7.51,20.24c0,1.99.31,3.99.77,5.83,3.07,10.43,13.96,19.48,27.76,19.48,18.71,0,30.36-13.19,30.36-33.74,0-16.71-11.04-31.28-29.44-31.28-12.11,0-23.92,6.9-28.06,20.24-.61,1.99-1.38,4.45-1.38,6.44v13.04Z"/>
      <path class="cls-2" d="m571.64,46.27h7.51v109.8h-7.51V46.27Z"/>
      <path class="cls-2" d="m650.77,156.06l-1.23-11.35h-.31c-3.83,5.67-13.19,13.19-26.68,13.19-16.71,0-23.46-11.35-23.46-20.24,0-16.71,15.49-27.6,49.84-27.14v-1.69c0-5.52-1.23-22.08-20.86-21.93-7.36,0-15.03,1.84-21.16,6.13l-2.45-5.37c8.13-5.37,17.18-7.05,24.23-7.05,25,0,27.76,19.32,27.76,30.98v26.68c0,5.98.31,11.81,1.23,17.79h-6.9Zm-1.84-39.26c-19.47-.61-41.86,2.45-41.86,19.48,0,10.43,7.51,15.49,16.1,15.49,14.26,0,21.93-8.43,24.84-15.03.61-1.53.92-3.07.92-4.29v-15.64Z"/>
      <path class="cls-2" d="m677.45,82.46l21.93,49.23c2.15,4.75,4.6,10.89,5.98,15.49h.31c1.69-4.6,3.68-10.12,6.13-16.1l20.55-48.61h8.13l-26.07,59.5c-10.12,23.31-16.71,34.81-26.53,41.87-6.29,4.6-11.96,6.29-13.5,6.59l-1.99-6.29c3.68-1.07,8.89-3.22,13.5-7.21,3.83-3.22,9.51-9.35,14.11-19.78.61-1.38.92-2.3.92-2.91s-.31-1.69-1.07-3.37l-30.52-68.39h8.13Z"/>
      <path class="cls-2" d="m762.56,52.71v45.24h64.71v-45.24h7.51v103.36h-7.51v-51.83h-64.71v51.83h-7.51V52.71h7.51Z"/>
      <path class="cls-2" d="m924.65,138.28c0,5.98.15,11.81.61,17.79h-7.05l-.46-14.88h-.31c-4.45,8.13-13.8,16.71-28.68,16.71-8.43,0-27.76-2.91-27.76-34.2v-41.25h7.51v39.72c0,17.18,5.98,29.14,22.24,29.14,11.19,0,20.55-7.05,24.54-15.64.92-2.3,1.84-5.37,1.84-8.59v-44.62h7.51v55.82Z"/>
      <path class="cls-2" d="m951.03,156.06c.46-5.98.61-11.81.61-17.79V46.27h7.51v51.37h.31c5.21-9.81,15.33-17.02,30.67-17.02,21.62,0,35.42,17.02,35.42,37.57,0,26.07-18.4,39.72-36.65,39.72-12.88,0-23.16-4.45-30.21-16.1h-.31l-.46,14.26h-6.9Zm8.13-29.29c0,1.84.31,3.83.77,5.67,3.07,10.27,13.65,19.32,27.76,19.32,18.71,0,30.36-13.19,30.36-33.28,0-17.17-11.04-31.74-29.44-31.74-12.11,0-23.92,6.9-28.22,20.55-.61,1.84-1.23,3.99-1.23,6.75v12.73Z"/>
    </g>
    <g>
      <g>
        <polygon class="cls-1" points="193.59 198.43 4.95 151.06 4.95 53.79 193.59 4.95 193.59 198.43"/>
        <path class="cls-2" d="m193.59,203.38c-.4,0-.81-.05-1.21-.15L3.74,155.86c-2.2-.55-3.74-2.53-3.74-4.8V53.79c0-2.25,1.52-4.22,3.71-4.79L192.35.16c1.48-.38,3.06-.06,4.27.88,1.21.94,1.92,2.38,1.92,3.91v193.48c0,1.52-.7,2.96-1.9,3.9-.88.68-1.95,1.05-3.04,1.05ZM9.9,147.2l178.74,44.89V11.34L9.9,57.62v89.58Z"/>
      </g>
      <g>
        <polygon class="cls-1" points="193.59 198.43 213.38 172.11 213.38 47.23 193.59 4.95 193.59 198.43"/>
        <path class="cls-2" d="m193.58,203.38c-.52,0-1.05-.08-1.57-.26-2.02-.67-3.38-2.56-3.38-4.69V4.95c0-2.32,1.61-4.33,3.87-4.83,2.26-.5,4.57.63,5.56,2.73l19.79,42.28c.31.66.47,1.37.47,2.1v124.88c0,1.07-.35,2.12-.99,2.97l-19.79,26.32c-.95,1.27-2.43,1.97-3.96,1.97Zm4.95-176.19v156.43l9.9-13.16V48.33l-9.9-21.14Z"/>
      </g>
    </g>
  </g>
</svg>