<?xml version="1.0" encoding="UTF-8"?>
<svg id="Calque_2" data-name="Calque 2" xmlns="http://www.w3.org/2000/svg" viewBox="0 0 218.32 203.38">
  <defs>
    <style>
      .cls-1 {
        fill: #5f97d5;
      }

      .cls-1, .cls-2 {
        stroke-width: 0px;
      }

      .cls-2 {
        fill: #fff;
      }
    </style>
  </defs>
  <g id="Calque_2-2" data-name="Calque 2">
    <g id="Calque_1-2" data-name="Calque 1-2">
      <g>
        <g>
          <polygon class="cls-2" points="193.59 198.43 4.95 151.06 4.95 53.79 193.59 4.95 193.59 198.43"/>
          <path class="cls-1" d="M193.59,203.38c-.4,0-.81-.05-1.21-.15L3.74,155.86c-2.2-.55-3.74-2.53-3.74-4.8V53.79c0-2.25,1.52-4.22,3.71-4.79L192.35.16c1.48-.38,3.06-.06,4.27.88,1.21.94,1.92,2.38,1.92,3.91v193.48c0,1.52-.7,2.96-1.9,3.9-.88.68-1.95,1.05-3.04,1.05h-.01ZM9.9,147.2l178.74,44.89V11.34L9.9,57.62v89.58Z"/>
        </g>
        <g>
          <polygon class="cls-2" points="193.59 198.43 213.38 172.11 213.38 47.23 193.59 4.95 193.59 198.43"/>
          <path class="cls-1" d="M193.58,203.38c-.52,0-1.05-.08-1.57-.26-2.02-.67-3.38-2.56-3.38-4.69V4.95c0-2.32,1.61-4.33,3.87-4.83s4.57.63,5.56,2.73l19.79,42.28c.31.66.47,1.37.47,2.1v124.88c0,1.07-.35,2.12-.99,2.97l-19.79,26.32c-.95,1.27-2.43,1.97-3.96,1.97h0ZM198.53,27.19v156.43l9.9-13.16V48.33l-9.9-21.14Z"/>
        </g>
      </g>
    </g>
  </g>
</svg>